<svg width="258" height="210" viewBox="0 0 258 210" fill="none" xmlns="http://www.w3.org/2000/svg">
<g clip-path="url(#clip0_66_659)">
<path d="M25.8204 0C23.425 0.00269045 21.1286 0.955506 19.4348 2.64941C17.7411 4.34332 16.7883 6.63997 16.7856 9.03551V200.596C16.7883 202.992 17.7411 205.288 19.4348 206.982C21.1286 208.676 23.425 209.629 25.8204 209.632H109.674C112.069 209.629 114.366 208.676 116.059 206.982C117.753 205.288 118.706 202.992 118.709 200.596V9.03551C118.706 6.63997 117.753 4.34332 116.06 2.64941C114.366 0.955506 112.069 0.00269045 109.674 0H25.8204Z" fill="#E6E6E6"/>
<path d="M113.12 44.3254V28.9537C108.345 27.857 103.85 25.7801 99.9201 22.8545C95.9901 19.9289 92.711 16.2186 90.2904 11.9587C89.1292 12.8198 87.7212 13.2833 86.2756 13.2802H74.0706C77.3273 21.3981 82.6399 28.5289 89.4863 33.9719C96.3326 39.415 104.477 42.983 113.12 44.3254Z" fill="white"/>
<path d="M113.12 28.0728V13.3053C113.12 12.2251 112.908 11.1554 112.494 10.1573C112.081 9.15925 111.476 8.25238 110.712 7.48854C109.948 6.7247 109.041 6.11886 108.043 5.70562C107.045 5.29239 105.976 5.07987 104.895 5.0802H93.0458V6.50612C93.047 7.42069 92.8624 8.32597 92.5033 9.16706C92.1442 10.0082 91.6179 10.7675 90.9565 11.3991C93.2978 15.5594 96.4761 19.189 100.291 22.0588C104.106 24.9285 108.474 26.9761 113.12 28.0722V28.0728Z" fill="white"/>
<path d="M56.1196 13.2805H48.4878C46.6919 13.28 44.9697 12.5661 43.7 11.2958C42.4303 10.0255 41.7172 8.30283 41.7174 6.50673V5.08081H30.6002C29.5201 5.08074 28.4505 5.29345 27.4526 5.70682C26.4547 6.12018 25.548 6.72608 24.7843 7.48993C24.0205 8.25378 23.4147 9.16061 23.0015 10.1586C22.5882 11.1566 22.3756 12.2263 22.3757 13.3065V196.332C22.3746 197.412 22.5866 198.482 22.9995 199.48C23.4125 200.478 24.0184 201.385 24.7824 202.149C25.5464 202.912 26.4536 203.518 27.4519 203.93C28.4502 204.342 29.5201 204.554 30.6002 204.552H104.897C105.236 204.552 105.574 204.532 105.91 204.489C107.899 204.241 109.73 203.276 111.057 201.774C112.385 200.272 113.119 198.337 113.121 196.332V61.5974C86.098 58.4671 63.582 39.1839 56.1196 13.2805Z" fill="white"/>
<path d="M73.1446 13.2805H57.012C64.4374 38.7039 86.5668 57.6189 113.12 60.7362V45.2007C104.247 43.8439 95.8843 40.1818 88.8693 34.5804C81.8542 28.9789 76.4319 21.6343 73.1443 13.2805H73.1446Z" fill="white"/>
<path d="M67.7403 111.25C64.2176 111.251 60.7291 110.558 57.4743 109.211C54.2194 107.863 51.262 105.888 48.7711 103.396C46.2802 100.905 44.3045 97.9477 42.9571 94.6925C41.6097 91.4374 40.917 87.9486 40.9185 84.4256C40.9185 84.3691 40.9185 84.3104 40.9219 84.2542C41.004 69.5645 53.034 57.6014 67.7403 57.6014C71.2626 57.6014 74.7504 58.2953 78.0046 59.6433C81.2588 60.9914 84.2156 62.9672 86.7062 65.4581C89.1969 67.9489 91.1726 70.906 92.5205 74.1605C93.8684 77.4149 94.5622 80.903 94.5622 84.4256C94.5622 87.9482 93.8684 91.4363 92.5205 94.6908C91.1726 97.9452 89.1969 100.902 86.7062 103.393C84.2156 105.884 81.2588 107.86 78.0046 109.208C74.7504 110.556 71.2626 111.25 67.7403 111.25ZM67.7403 58.1662C60.808 58.1816 54.1618 60.9322 49.2459 65.8204C44.3299 70.7085 41.5413 77.3393 41.486 84.272C41.4829 84.3319 41.4831 84.3802 41.4831 84.4256C41.4825 89.6202 43.0221 94.6983 45.9074 99.0178C48.7927 103.337 52.894 106.704 57.6927 108.692C62.4913 110.68 67.7717 111.201 72.8661 110.187C77.9604 109.174 82.6399 106.673 86.3127 103C89.9855 99.3265 92.4867 94.6466 93.4999 89.5518C94.513 84.457 93.9927 79.1761 92.0047 74.3771C90.0167 69.578 86.6502 65.4764 82.3312 62.5908C78.0121 59.7053 72.9345 58.1655 67.7403 58.1662Z" fill="#3F3D56"/>
<path d="M79.8874 83.8067L61.5294 73.2066C61.4435 73.157 61.3462 73.1309 61.247 73.1309C61.1479 73.1309 61.0506 73.157 60.9647 73.2066C60.8789 73.2562 60.8076 73.3274 60.758 73.4133C60.7085 73.4991 60.6824 73.5965 60.6824 73.6956V94.8952C60.6824 94.9943 60.7085 95.0917 60.758 95.1776C60.8076 95.2634 60.8789 95.3347 60.9647 95.3843C61.0506 95.4338 61.1479 95.4599 61.247 95.4599C61.3462 95.4599 61.4435 95.4338 61.5294 95.3843L79.8874 84.7842C79.9732 84.7346 80.0445 84.6633 80.0941 84.5775C80.1436 84.4916 80.1697 84.3943 80.1697 84.2951C80.1697 84.196 80.1436 84.0986 80.0941 84.0128C80.0445 83.9269 79.9732 83.8557 79.8874 83.8061L61.5294 73.206C61.4435 73.1565 61.3462 73.1304 61.247 73.1304C61.1479 73.1304 61.0506 73.1565 60.9647 73.206C60.8789 73.2556 60.8076 73.3269 60.758 73.4127C60.7085 73.4986 60.6824 73.5959 60.6824 73.6951V94.8952C60.6824 94.9943 60.7085 95.0917 60.758 95.1776C60.8076 95.2634 60.8789 95.3347 60.9647 95.3843C61.0506 95.4338 61.1479 95.4599 61.247 95.4599C61.3462 95.4599 61.4435 95.4338 61.5294 95.3843L79.8874 84.7842C79.9732 84.7346 80.0445 84.6633 80.0941 84.5775C80.1436 84.4916 80.1697 84.3943 80.1697 84.2951C80.1697 84.196 80.1436 84.0986 80.0941 84.0128C80.0445 83.9269 79.9732 83.8557 79.8874 83.8061V83.8067Z" fill="#AECACD"/>
<path d="M213.888 210H0V209.384H214L213.888 210Z" fill="white"/>
</g>
<g clip-path="url(#clip1_66_659)">
<g clip-path="url(#clip2_66_659)">
<path d="M145.481 209.311C142.874 209.125 142.194 209.641 138.249 209.311H131.016L131.957 191.92L143.343 196.505L199.928 197.9L199.895 197.997C199.869 198.071 197.357 205.454 199.321 208.25L199.402 208.366L199.243 208.368L147.336 208.846C146.769 208.851 146.044 209.351 145.481 209.311Z" fill="#F2F2F2"/>
<path d="M148.416 209.538C143.379 209.178 138.163 211.146 133.81 208.925L130.33 209.136L130.321 209.107C130.294 209.026 128.65 196.031 131.973 190.992L132.119 190.771L132.233 191.964L131.138 208.152L133.566 207.338C139.463 210.127 146.476 208.285 153.226 208.259L199.159 208.089C200.121 208.086 200.923 208.746 200.948 209.562L200.951 209.641L151.191 209.638C150.263 209.637 149.338 209.604 148.416 209.538Z" fill="#CCCCCC"/>
<path d="M196.738 201.408L145.047 200.375L144.994 200.356L132.782 195.757L133.013 195.138L145.172 199.717L196.751 200.747L196.738 201.408Z" fill="#E6E6E6"/>
<path d="M196.462 204.189L144.771 203.156L144.719 203.137L132.506 198.538L132.737 197.919L144.897 202.498L196.475 203.528L196.462 204.189Z" fill="#E6E6E6"/>
<path d="M196.186 206.97L144.495 205.937L144.443 205.917L132.23 201.318L132.461 200.7L144.621 205.279L196.199 206.309L196.186 206.97Z" fill="#E6E6E6"/>
<path d="M148.773 198.08C143.981 197.755 139.308 196.43 135.053 194.19L131.47 192.281L131.564 191.337C131.59 191.198 131.666 191.075 131.778 190.989C131.889 190.904 132.028 190.863 132.168 190.874L132.484 190.878L180.69 191.591C183.846 191.63 186.972 192.2 189.939 193.277L200.443 197.109L200.437 197.164C200.349 198.053 199.457 198.741 198.405 198.728L150.921 198.169C150.203 198.161 149.487 198.131 148.773 198.08Z" fill="#E6E6E6"/>
<path d="M200.342 197.313L200.331 197.312L142.523 195.981L142.483 195.963L132.061 191.114L132.167 190.951L132.483 190.955L142.62 195.674L199.892 196.992L200.351 197.003L200.342 197.313Z" fill="#CCCCCC"/>
<path d="M155.401 191.295L154.668 191.284L138.101 191.038L137.316 191.027C141.101 195.076 149.471 196.089 161.739 194.521L155.401 191.295Z" fill="#CCCCCC"/>
<path d="M201.98 94.4501L202.991 96.8122L201.339 105.201L184.488 102.847L184.623 92.6178L184.961 90.3776L201.98 94.4501Z" fill="#FFB6B6"/>
<path d="M210.686 203.167H206.968L205.199 188.76H210.686V203.167Z" fill="#6B5252"/>
<path d="M199.628 208.043C199.628 208.466 199.795 208.872 200.093 209.171C200.391 209.47 200.795 209.639 201.216 209.639H208.289L209.508 207.111L209.981 209.639H212.647L211.898 200.607L210.686 200.536L206.615 200.293L205.958 200.252V202.81L200.314 206.728C200.102 206.875 199.929 207.072 199.81 207.301C199.69 207.53 199.628 207.785 199.628 208.043Z" fill="#1E2118"/>
<path d="M176.324 186.651H172.607L170.42 165.441L177.405 165.021L176.324 186.651Z" fill="#6B5252"/>
<path d="M165.266 191.527C165.266 191.951 165.434 192.356 165.731 192.655C166.029 192.955 166.433 193.123 166.854 193.123H173.927L175.146 190.595L175.62 193.123H178.285L177.536 184.092L176.455 184.028L172.312 183.777L171.597 183.736V186.294L165.952 190.213C165.74 190.36 165.567 190.556 165.448 190.785C165.328 191.014 165.266 191.269 165.266 191.527Z" fill="#1E2118"/>
<path d="M212.264 190.743H212.25L211.535 167.318C211.997 166.421 212.232 165.423 212.218 164.413C212.204 163.403 211.942 162.412 211.455 161.529L211.352 161.343L211.618 160.107C211.959 158.519 211.802 156.863 211.17 155.368L210.503 133.516C212.886 118 201.53 107.881 201.53 107.881L202.573 99.7482L184.205 100.168L184.518 107.881L180.865 120.488C178.943 139.303 166.007 151.129 167.973 169.121C167.978 169.173 167.97 169.225 167.951 169.273C167.752 169.883 167.681 170.528 167.745 171.166C167.808 171.805 168.005 172.422 168.32 172.98C168.402 173.122 168.458 173.278 168.487 173.44C168.892 176.594 168.944 172.604 169.481 175.731L169.377 175.784C169.001 175.914 168.839 176.438 169.016 176.953C169.193 177.468 169.642 177.78 170.018 177.65L179.837 177.755C180.213 177.625 180.375 177.102 180.197 176.586C180.02 176.071 179.572 175.759 179.196 175.889L178.585 176.2L179.607 172.84L179.965 172.504C180.137 172.343 180.27 172.145 180.355 171.925C180.44 171.705 180.474 171.469 180.455 171.233C180.436 170.998 180.364 170.771 180.245 170.567C180.126 170.364 179.963 170.19 179.767 170.059L180.785 164.6L180.641 160.471L180.939 155.787L193.823 137.029L199.035 162.939L204.36 191.004C204.235 191.117 204.142 191.259 204.089 191.419C204.035 191.578 204.023 191.748 204.054 191.913C204.103 192.144 204.23 192.35 204.414 192.497C204.598 192.644 204.827 192.722 205.062 192.718H212.29C212.442 192.717 212.591 192.682 212.727 192.614C212.863 192.547 212.981 192.448 213.073 192.327C213.164 192.206 213.227 192.065 213.256 191.916C213.285 191.766 213.279 191.612 213.238 191.465C213.177 191.254 213.049 191.069 212.873 190.939C212.697 190.808 212.483 190.74 212.264 190.743Z" fill="#1E2118"/>
<path d="M205.836 54.5894C205.837 56.085 205.472 57.558 204.774 58.8788C204.075 60.1997 203.065 61.3282 201.831 62.1652C200.598 63.0022 199.178 63.5221 197.698 63.6793C196.218 63.8365 194.721 63.6262 193.341 63.0668C191.96 62.5075 190.738 61.6162 189.78 60.4711C188.822 59.3261 188.159 57.9624 187.848 56.4997C187.538 55.037 187.589 53.52 187.998 52.082C188.407 50.6439 189.161 49.3287 190.194 48.2519L190.238 48.2081C190.311 48.1313 190.383 48.0545 190.46 47.9814L190.461 47.9812L190.462 47.9804L190.463 47.9792L190.463 47.9778C190.568 47.9013 190.664 47.8143 190.751 47.7183C191.979 45.9947 193.37 44.5494 196.742 45.4523C201.596 46.7522 205.836 49.542 205.836 54.5894Z" fill="#1E2118"/>
<path d="M155.88 50.6778C155.86 51.1667 155.946 51.6541 156.133 52.1059C156.32 52.5576 156.604 52.9626 156.964 53.2923C157.324 53.622 157.751 53.8685 158.216 54.0143C158.681 54.1601 159.172 54.2018 159.654 54.1363L183.107 73.4753L186.69 67.149L162.51 50.1287C162.346 49.3214 161.894 48.6023 161.239 48.1076C160.583 47.613 159.769 47.3772 158.952 47.4449C158.135 47.5125 157.371 47.879 156.805 48.4749C156.239 49.0708 155.91 49.8546 155.88 50.6778Z" fill="#6B5252"/>
<path d="M193.011 79.1786C193.011 79.1786 193.003 78.4821 189.275 78.5089C184.647 78.5421 171.901 71.8665 173.016 65.5794C172.487 65.8198 171.893 65.8763 171.328 65.7402C170.763 65.6041 170.26 65.283 169.896 64.8276L176.101 58.8252C178.049 58.9573 178.068 60.2664 177.902 61.0181L182.888 63.009L195.877 70.5063L193.583 78.0371L193.011 79.1786Z" fill="#AECACD"/>
<path d="M194.502 64.3654C198.713 64.3654 202.128 60.935 202.128 56.7035C202.128 52.472 198.713 49.0416 194.502 49.0416C190.29 49.0416 186.876 52.472 186.876 56.7035C186.876 60.935 190.29 64.3654 194.502 64.3654Z" fill="#6B5252"/>
<path d="M184.021 94.8127C183.599 95.3775 183.384 96.0707 183.412 96.776C183.439 97.4812 183.706 98.1556 184.17 98.6861C184.174 98.9108 184.207 99.1281 184.524 99.9335C184.566 100.012 184.614 100.086 184.669 100.155C184.68 100.171 184.691 100.188 184.703 100.203C185.037 100.637 185.501 100.951 186.027 101.098L199.986 105.013L201.831 105.53L202.156 105.62L202.334 103.088C202.75 102.742 203.028 102.258 203.119 101.725C203.21 101.191 203.107 100.642 202.83 100.177L202.573 99.7499L204.072 95.7005L204.217 95.2997L208.039 84.9645L208.043 84.2752L208.05 83.5635L208.087 78.5962C208.089 77.0307 207.73 75.4861 207.038 74.0835C206.346 72.681 205.339 71.4586 204.098 70.5124C202.967 69.6443 201.664 69.0311 200.276 68.7143L200.247 68.7105L198.737 66.6689L192.611 67.2833L192.104 68.3284L191.489 69.5871L187.048 72.243L185.531 75.7867L184.505 78.1842C182.917 79.3305 181.97 80.8027 181.698 82.5558C181.116 86.2793 183.711 90.0066 184.021 90.4336L184.099 94.7078L184.021 94.8127Z" fill="#AECACD"/>
<path d="M202.482 58.7121C202.413 58.7011 202.344 58.6865 202.275 58.6755C201.085 58.4635 199.896 58.2552 198.71 58.0395L198.601 55.3386L197.164 57.7581C193.887 58.8509 190.82 58.2333 187.935 56.87C186.984 56.4162 186.061 55.9048 185.171 55.3387C184.878 50.7708 186.716 47.8465 190.136 48.1532C190.261 48.1644 190.351 48.0363 190.46 47.9814L190.461 47.9811L190.463 47.9803L190.463 47.9791L190.464 47.9777C190.649 47.89 190.838 47.806 191.027 47.7292C192.508 47.1478 194.123 47.0005 195.684 47.3046C197.245 47.6087 198.688 48.3516 199.845 49.447C202.173 51.6801 203.221 55.3679 202.482 58.7121Z" fill="#1E2118"/>
<path d="M202.275 58.6754C202.275 58.6754 200.016 50.2035 190.333 48.2482C190.322 48.2445 190.285 48.2299 190.238 48.208C190.209 48.1897 190.173 48.1714 190.136 48.1532C190.245 48.091 190.351 48.0362 190.46 47.9814L190.461 47.9811L190.463 47.9803L190.463 47.9791L190.464 47.9777C190.558 47.89 190.653 47.8023 190.751 47.7182L191.027 47.7292C191.027 47.7292 200.744 46.1832 202.275 58.6754Z" fill="#FF1B03"/>
<path d="M206 112.081C205.821 112.235 205.603 112.336 205.37 112.374C205.137 112.412 204.899 112.385 204.68 112.295C204.245 112.11 203.859 111.826 203.552 111.466C202.297 110.144 201.401 108.521 200.948 106.752L201.367 106.004C201.203 105.082 201.357 104.132 201.805 103.31C202.252 102.488 202.966 101.845 203.828 101.487C204.318 101.278 204.862 101.231 205.38 101.352C205.638 101.416 205.873 101.549 206.061 101.736C206.249 101.923 206.384 102.158 206.45 102.416C206.611 103.216 205.948 103.938 205.277 104.398C204.107 105.195 202.754 105.682 201.346 105.811C203.068 106.786 204.557 108.129 205.708 109.744C205.974 110.081 206.171 110.468 206.286 110.882C206.341 111.09 206.343 111.309 206.294 111.518C206.244 111.727 206.143 111.92 206 112.081Z" fill="#1E2118"/>
<path d="M175.116 112.063C175.601 112.018 176.07 111.867 176.491 111.621C176.912 111.374 177.273 111.038 177.551 110.636C177.828 110.234 178.014 109.775 178.096 109.293C178.178 108.811 178.154 108.316 178.025 107.844L192.22 101.187L200.766 87.297L194.049 84.5721L188.284 95.7647L173.692 105.535C172.917 105.805 172.268 106.351 171.867 107.069C171.467 107.788 171.342 108.63 171.518 109.434C171.693 110.239 172.157 110.951 172.82 111.435C173.483 111.92 174.3 112.143 175.116 112.063Z" fill="#6B5252"/>
<path d="M206.038 73.9913C206.038 73.9913 207.711 74.54 205.875 77.8003C204.405 80.4104 197.244 95.4451 194.321 98.3971C194.629 98.8922 194.764 99.476 194.705 100.057C194.646 100.637 194.396 101.181 193.995 101.604L187.248 96.2243C187.119 94.2678 188.408 94.0737 189.171 94.1397L190.724 88.6123L196.138 74.9772L204.836 73.5731L206.038 73.9913Z" fill="#AECACD"/>
<path d="M206.184 48.4349C206.503 47.1389 208.817 46.1821 204.853 44.3728C203.891 43.9337 203.931 42.4216 203.117 41.7444C202.303 41.0673 201.111 40.7533 200.165 41.2266C199.32 41.6493 198.844 42.6058 198.743 43.5485C198.694 44.4972 198.803 45.4474 199.066 46.3602L198.989 46.473C200.559 47.6803 202.129 48.8876 203.7 50.095C204.277 50.5386 205.031 51.0032 205.678 50.6703C206.41 50.2934 205.986 49.2372 206.184 48.4349Z" fill="#1E2118"/>
</g>
<path d="M44 158H32V162H44V158Z" fill="#AECACD"/>
<path d="M44 172H32V176H44V172Z" fill="#AECACD"/>
<path d="M114 149H22V150H114V149Z" fill="#E6E6E6"/>
<path d="M114 182H22V183H114V182Z" fill="#E6E6E6"/>
<path d="M42.5681 181.8H32.8317C32.4521 181.8 32.0882 181.655 31.8198 181.397C31.5513 181.14 31.4003 180.79 31.3999 180.426V153.774C31.4003 153.41 31.5513 153.06 31.8198 152.803C32.0882 152.545 32.4521 152.4 32.8317 152.4H42.5681C42.9477 152.4 43.3116 152.545 43.58 152.803C43.8485 153.06 43.9995 153.41 43.9999 153.774V180.426C43.9995 180.79 43.8485 181.14 43.58 181.397C43.3116 181.655 42.9477 181.8 42.5681 181.8ZM32.8317 152.95C32.604 152.95 32.3856 153.037 32.2245 153.191C32.0635 153.346 31.9729 153.555 31.9726 153.774V180.426C31.9729 180.645 32.0635 180.854 32.2245 181.009C32.3856 181.163 32.604 181.25 32.8317 181.25H42.5681C42.7959 181.25 43.0142 181.163 43.1753 181.009C43.3363 180.854 43.4269 180.645 43.4272 180.426V153.774C43.4269 153.555 43.3363 153.346 43.1753 153.191C43.0142 153.037 42.7959 152.95 42.5681 152.95H32.8317Z" fill="#3F3D56"/>
<path d="M60 158H49V162H60V158Z" fill="#AECACD"/>
<path d="M60 172H49V176H60V172Z" fill="#AECACD"/>
<path d="M59.3681 181.8H49.6318C49.2522 181.8 48.8882 181.655 48.6198 181.397C48.3514 181.14 48.2004 180.79 48.2 180.426V153.774C48.2004 153.41 48.3514 153.06 48.6198 152.803C48.8882 152.545 49.2522 152.4 49.6318 152.4H59.3681C59.7477 152.4 60.1117 152.545 60.3801 152.803C60.6485 153.06 60.7995 153.41 60.8 153.774V180.426C60.7995 180.79 60.6485 181.14 60.3801 181.397C60.1117 181.655 59.7477 181.8 59.3681 181.8ZM49.6318 152.95C49.404 152.95 49.1856 153.037 49.0246 153.191C48.8635 153.346 48.7729 153.555 48.7727 153.774V180.426C48.7729 180.645 48.8635 180.854 49.0246 181.009C49.1856 181.163 49.404 181.25 49.6318 181.25H59.3681C59.5959 181.25 59.8143 181.163 59.9753 181.009C60.1364 180.854 60.227 180.645 60.2272 180.426V153.774C60.227 153.555 60.1364 153.346 59.9753 153.191C59.8143 153.037 59.5959 152.95 59.3681 152.95H49.6318Z" fill="#3F3D56"/>
<path d="M87 126H75V130H87V126Z" fill="#AECACD"/>
<path d="M87 139H75V143H87V139Z" fill="#AECACD"/>
<path d="M85.9682 148.2H76.2319C75.8523 148.2 75.4883 148.062 75.2199 147.816C74.9515 147.571 74.8005 147.238 74.8 146.892V121.508C74.8005 121.161 74.9515 120.829 75.2199 120.584C75.4883 120.338 75.8523 120.2 76.2319 120.2H85.9682C86.3478 120.2 86.7118 120.338 86.9802 120.584C87.2486 120.829 87.3996 121.161 87.4 121.508V146.892C87.3996 147.238 87.2486 147.571 86.9802 147.816C86.7118 148.062 86.3478 148.2 85.9682 148.2ZM76.2319 120.723C76.0041 120.724 75.7857 120.806 75.6247 120.954C75.4636 121.101 75.373 121.3 75.3728 121.508V146.892C75.373 147.1 75.4636 147.299 75.6247 147.446C75.7857 147.594 76.0041 147.676 76.2319 147.677H85.9682C86.196 147.676 86.4144 147.594 86.5754 147.446C86.7365 147.299 86.8271 147.1 86.8273 146.892V121.508C86.8271 121.3 86.7365 121.101 86.5754 120.954C86.4144 120.806 86.196 120.724 85.9682 120.723H76.2319Z" fill="#3F3D56"/>
<path d="M104.2 125.8H93V130H104.2V125.8Z" fill="#AECACD"/>
<path d="M104.2 138.4H93V142.6H104.2V138.4Z" fill="#AECACD"/>
<path d="M102.927 148.2H94.2727C93.9353 148.2 93.6118 148.062 93.3732 147.816C93.1346 147.571 93.0004 147.238 93 146.892V121.508C93.0004 121.161 93.1346 120.829 93.3732 120.584C93.6118 120.338 93.9353 120.2 94.2727 120.2H102.927C103.265 120.2 103.588 120.338 103.827 120.584C104.065 120.829 104.2 121.161 104.2 121.508V146.892C104.2 147.238 104.065 147.571 103.827 147.816C103.588 148.062 103.265 148.2 102.927 148.2ZM94.2727 120.723C94.0703 120.724 93.8762 120.806 93.733 120.954C93.5898 121.101 93.5093 121.3 93.5091 121.508V146.892C93.5093 147.1 93.5898 147.299 93.733 147.446C93.8762 147.594 94.0703 147.676 94.2727 147.677H102.927C103.13 147.676 103.324 147.594 103.467 147.446C103.61 147.299 103.691 147.1 103.691 146.892V121.508C103.691 121.3 103.61 121.101 103.467 120.954C103.324 120.806 103.13 120.724 102.927 120.723H94.2727Z" fill="#3F3D56"/>
<path d="M73.3884 155.926L62.7581 159.936L64.1799 163.734L74.8103 159.724L73.3884 155.926Z" fill="#AECACD"/>
<path d="M78.0329 168.334L67.6902 172.235L69.1121 176.034L79.4548 172.132L78.0329 168.334Z" fill="#AECACD"/>
<path d="M71.6164 181.8C71.3352 181.799 71.0608 181.714 70.8298 181.556C70.5987 181.398 70.4219 181.174 70.3228 180.914L60.8879 156.113C60.7594 155.774 60.7723 155.398 60.9237 155.068C61.0752 154.739 61.3528 154.482 61.6958 154.354L70.4967 151.087C70.6666 151.024 70.8475 150.995 71.029 151.001C71.2105 151.007 71.389 151.048 71.5543 151.122C71.7197 151.196 71.8686 151.302 71.9927 151.433C72.1167 151.564 72.2134 151.718 72.2773 151.885L81.7122 176.687C81.8407 177.026 81.8278 177.401 81.6764 177.731C81.5249 178.061 81.2473 178.318 80.9043 178.445L72.1034 181.712C71.9478 181.77 71.7828 181.8 71.6164 181.8ZM70.9835 151.546C70.8836 151.546 70.7846 151.564 70.6912 151.599L61.8904 154.865C61.6846 154.942 61.518 155.096 61.4271 155.294C61.3362 155.492 61.3285 155.717 61.4056 155.921L70.8405 180.722C70.8789 180.823 70.9369 180.915 71.0113 180.993C71.0857 181.072 71.1751 181.135 71.2743 181.18C71.3735 181.224 71.4806 181.249 71.5895 181.253C71.6984 181.256 71.8069 181.239 71.9089 181.201L80.7097 177.934C80.9155 177.857 81.0821 177.703 81.173 177.505C81.2639 177.308 81.2716 177.082 81.1945 176.879L71.7596 152.077C71.7001 151.922 71.594 151.787 71.4554 151.692C71.3168 151.597 71.1522 151.546 70.9835 151.546Z" fill="#3F3D56"/>
<path d="M36.1992 123.734L25.8564 127.635L27.2783 131.434L37.6211 127.532L36.1992 123.734Z" fill="#AECACD"/>
<path d="M40.8442 136.142L30.5015 140.044L31.9234 143.842L42.2661 139.941L40.8442 136.142Z" fill="#AECACD"/>
<path d="M34.4951 149.6C34.2327 149.599 33.9766 149.514 33.761 149.356C33.5453 149.198 33.3803 148.974 33.2878 148.714L24.4819 123.913C24.362 123.574 24.374 123.198 24.5153 122.868C24.6567 122.539 24.9158 122.282 25.2359 122.154L33.4501 118.887C33.6087 118.824 33.7776 118.795 33.9469 118.801C34.1163 118.807 34.2829 118.848 34.4372 118.922C34.5916 118.996 34.7306 119.102 34.8464 119.233C34.9621 119.364 35.0524 119.518 35.112 119.685L43.9179 144.487C44.0378 144.826 44.0258 145.201 43.8845 145.531C43.7431 145.861 43.484 146.118 43.1639 146.245L34.9497 149.512C34.8044 149.57 34.6504 149.6 34.4951 149.6ZM33.9045 119.346C33.8113 119.346 33.7189 119.364 33.6317 119.399L25.4175 122.665C25.2255 122.742 25.07 122.896 24.9851 123.094C24.9003 123.292 24.8931 123.517 24.9651 123.721L33.771 148.522C33.8068 148.623 33.8609 148.715 33.9304 148.794C33.9999 148.872 34.0833 148.935 34.1759 148.98C34.2685 149.024 34.3684 149.049 34.4701 149.053C34.5717 149.056 34.673 149.039 34.7681 149.001L42.9823 145.734C43.1743 145.657 43.3298 145.503 43.4147 145.305C43.4995 145.108 43.5067 144.882 43.4347 144.679L34.6288 119.878C34.5733 119.722 34.4743 119.587 34.3449 119.492C34.2155 119.397 34.0619 119.346 33.9045 119.346Z" fill="#3F3D56"/>
</g>
<defs>
<clipPath id="clip0_66_659">
<rect width="214" height="210" fill="white"/>
</clipPath>
<clipPath id="clip1_66_659">
<rect width="240" height="194" fill="white" transform="translate(18 16)"/>
</clipPath>
<clipPath id="clip2_66_659">
<rect width="220" height="169" fill="white" transform="translate(18 41)"/>
</clipPath>
</defs>
</svg>
