<svg width="274" height="212" viewBox="0 0 274 212" fill="none" xmlns="http://www.w3.org/2000/svg">
<g clip-path="url(#clip0_66_2)">
<path d="M248.002 202.829H25.9976C22.1103 202.829 18.2725 201.956 14.7669 200.274C11.2612 198.593 8.17704 196.146 5.74142 193.113C3.30581 190.08 1.58082 186.539 0.693486 182.751C-0.193844 178.962 -0.220908 175.023 0.614282 171.222L10.5305 126.104H263.469L273.386 171.222C274.221 175.023 274.194 178.962 273.307 182.751C272.419 186.539 270.694 190.08 268.259 193.113C265.823 196.146 262.739 198.593 259.233 200.274C255.727 201.956 251.89 202.829 248.002 202.829ZM11.1404 126.864L1.35537 171.385C0.544587 175.075 0.570881 178.899 1.43231 182.577C2.29375 186.255 3.96838 189.693 6.33288 192.637C8.69738 195.581 11.6915 197.957 15.0948 199.589C18.4981 201.222 22.2238 202.069 25.9976 202.069H248.002C251.776 202.069 255.502 201.222 258.905 199.589C262.308 197.957 265.303 195.581 267.667 192.637C270.032 189.693 271.706 186.255 272.568 182.577C273.429 178.899 273.455 175.075 272.645 171.385L262.86 126.864H11.1404Z" fill="#F2F2F2"/>
<path d="M219.813 29.77L231.458 28.0328L229.619 19.9238L222.637 23.4435L208.233 18.0094C208.028 17.479 207.673 17.0199 207.212 16.6879C206.75 16.356 206.202 16.1656 205.635 16.1399C205.067 16.1143 204.504 16.2546 204.015 16.5436C203.525 16.8326 203.131 17.258 202.879 17.7677C202.627 18.2775 202.528 18.8496 202.595 19.4145C202.662 19.9793 202.892 20.5123 203.257 20.9486C203.621 21.3849 204.105 21.7055 204.648 21.8715C205.192 22.0375 205.772 22.0416 206.318 21.8833L219.813 29.77Z" fill="#FFB6B6"/>
<path d="M243.482 23.7082C242.582 27.1247 221.836 30.9784 221.846 30.2393C221.876 28.1387 223.21 23.731 222.448 22.5875C222.012 21.9336 227.879 20.2626 227.879 20.2626C227.879 20.2626 231.117 19.015 235.314 17.4925C236.493 17.04 237.767 16.8934 239.018 17.0663C240.268 17.2393 241.455 17.7262 242.467 18.4817C242.467 18.4817 244.382 20.2918 243.482 23.7082Z" fill="#AECACD"/>
<path d="M42.7885 165.984H35.5791C33.969 165.984 32.4248 166.624 31.2862 167.764C30.1477 168.903 29.5081 170.449 29.5081 172.061C29.5081 173.673 30.1477 175.218 31.2862 176.358C32.4248 177.498 33.969 178.138 35.5791 178.138H42.7885C44.3987 178.138 45.9429 177.498 47.0814 176.358C48.22 175.218 48.8596 173.673 48.8596 172.061C48.8596 170.449 48.22 168.903 47.0814 167.764C45.9429 166.624 44.3987 165.984 42.7885 165.984Z" fill="#E6E6E6"/>
<path d="M65.9345 165.984H58.7251C57.115 165.984 55.5708 166.624 54.4322 167.764C53.2937 168.903 52.6541 170.449 52.6541 172.061C52.6541 173.673 53.2937 175.218 54.4322 176.358C55.5708 177.498 57.115 178.138 58.7251 178.138H65.9345C67.5447 178.138 69.0889 177.498 70.2274 176.358C71.366 175.218 72.0056 173.673 72.0056 172.061C72.0056 170.449 71.366 168.903 70.2274 167.764C69.0889 166.624 67.5447 165.984 65.9345 165.984Z" fill="#E6E6E6"/>
<path d="M89.0805 165.984H81.8711C80.261 165.984 78.7168 166.624 77.5782 167.764C76.4397 168.903 75.8 170.449 75.8 172.061C75.8 173.673 76.4397 175.218 77.5782 176.358C78.7168 177.498 80.261 178.138 81.8711 178.138H89.0805C90.6907 178.138 92.2349 177.498 93.3734 176.358C94.512 175.218 95.1516 173.673 95.1516 172.061C95.1516 170.449 94.512 168.903 93.3734 167.764C92.2349 166.624 90.6907 165.984 89.0805 165.984Z" fill="#E6E6E6"/>
<path d="M112.227 165.984H105.017C103.407 165.984 101.863 166.624 100.724 167.764C99.5857 168.903 98.946 170.449 98.946 172.061C98.946 173.673 99.5857 175.218 100.724 176.358C101.863 177.498 103.407 178.138 105.017 178.138H112.227C113.837 178.138 115.381 177.498 116.519 176.358C117.658 175.218 118.298 173.673 118.298 172.061C118.298 170.449 117.658 168.903 116.519 167.764C115.381 166.624 113.837 165.984 112.227 165.984Z" fill="#E6E6E6"/>
<path d="M135.373 165.984H128.163C126.553 165.984 125.009 166.624 123.87 167.764C122.732 168.903 122.092 170.449 122.092 172.061C122.092 173.673 122.732 175.218 123.87 176.358C125.009 177.498 126.553 178.138 128.163 178.138H135.373C136.983 178.138 138.527 177.498 139.665 176.358C140.804 175.218 141.444 173.673 141.444 172.061C141.444 170.449 140.804 168.903 139.665 167.764C138.527 166.624 136.983 165.984 135.373 165.984Z" fill="#E6E6E6"/>
<path d="M158.519 165.984H151.309C149.699 165.984 148.155 166.624 147.016 167.764C145.878 168.903 145.238 170.449 145.238 172.061C145.238 173.673 145.878 175.218 147.016 176.358C148.155 177.498 149.699 178.138 151.309 178.138H158.519C160.129 178.138 161.673 177.498 162.811 176.358C163.95 175.218 164.59 173.673 164.59 172.061C164.59 170.449 163.95 168.903 162.811 167.764C161.673 166.624 160.129 165.984 158.519 165.984Z" fill="#E6E6E6"/>
<path d="M181.664 165.984H174.455C172.845 165.984 171.301 166.624 170.162 167.764C169.023 168.903 168.384 170.449 168.384 172.061C168.384 173.673 169.023 175.218 170.162 176.358C171.301 177.498 172.845 178.138 174.455 178.138H181.664C183.274 178.138 184.819 177.498 185.957 176.358C187.096 175.218 187.735 173.673 187.735 172.061C187.735 170.449 187.096 168.903 185.957 167.764C184.819 166.624 183.274 165.984 181.664 165.984Z" fill="#E6E6E6"/>
<path d="M204.81 165.984H197.601C195.991 165.984 194.447 166.624 193.308 167.764C192.169 168.903 191.53 170.449 191.53 172.061C191.53 173.673 192.169 175.218 193.308 176.358C194.447 177.498 195.991 178.138 197.601 178.138H204.81C206.42 178.138 207.965 177.498 209.103 176.358C210.242 175.218 210.881 173.673 210.881 172.061C210.881 170.449 210.242 168.903 209.103 167.764C207.965 166.624 206.42 165.984 204.81 165.984Z" fill="#E6E6E6"/>
<path d="M227.956 165.984H220.747C219.137 165.984 217.593 166.624 216.454 167.764C215.315 168.903 214.676 170.449 214.676 172.061C214.676 173.673 215.315 175.218 216.454 176.358C217.593 177.498 219.137 178.138 220.747 178.138H227.956C229.566 178.138 231.111 177.498 232.249 176.358C233.388 175.218 234.027 173.673 234.027 172.061C234.027 170.449 233.388 168.903 232.249 167.764C231.111 166.624 229.566 165.984 227.956 165.984Z" fill="#E6E6E6"/>
<path d="M42.7885 140.536H35.5791C33.969 140.536 32.4248 141.176 31.2862 142.315C30.1477 143.455 29.5081 145.001 29.5081 146.613C29.5081 148.225 30.1477 149.77 31.2862 150.91C32.4248 152.05 33.969 152.69 35.5791 152.69H42.7885C44.3987 152.69 45.9429 152.05 47.0814 150.91C48.22 149.77 48.8596 148.225 48.8596 146.613C48.8596 145.001 48.22 143.455 47.0814 142.315C45.9429 141.176 44.3987 140.536 42.7885 140.536Z" fill="#E6E6E6"/>
<path d="M65.9345 140.536H58.7251C57.115 140.536 55.5708 141.176 54.4322 142.315C53.2937 143.455 52.6541 145.001 52.6541 146.613C52.6541 148.225 53.2937 149.77 54.4322 150.91C55.5708 152.05 57.115 152.69 58.7251 152.69H65.9345C67.5447 152.69 69.0889 152.05 70.2274 150.91C71.366 149.77 72.0056 148.225 72.0056 146.613C72.0056 145.001 71.366 143.455 70.2274 142.315C69.0889 141.176 67.5447 140.536 65.9345 140.536Z" fill="#E6E6E6"/>
<path d="M89.0805 140.536H81.8711C80.261 140.536 78.7168 141.176 77.5782 142.315C76.4397 143.455 75.8 145.001 75.8 146.613C75.8 148.225 76.4397 149.77 77.5782 150.91C78.7168 152.05 80.261 152.69 81.8711 152.69H89.0805C90.6907 152.69 92.2349 152.05 93.3734 150.91C94.512 149.77 95.1516 148.225 95.1516 146.613C95.1516 145.001 94.512 143.455 93.3734 142.315C92.2349 141.176 90.6907 140.536 89.0805 140.536Z" fill="#AECACD"/>
<path d="M112.227 140.536H105.017C103.407 140.536 101.863 141.176 100.724 142.315C99.5857 143.455 98.946 145.001 98.946 146.613C98.946 148.225 99.5857 149.77 100.724 150.91C101.863 152.05 103.407 152.69 105.017 152.69H112.227C113.837 152.69 115.381 152.05 116.519 150.91C117.658 149.77 118.298 148.225 118.298 146.613C118.298 145.001 117.658 143.455 116.519 142.315C115.381 141.176 113.837 140.536 112.227 140.536Z" fill="#E6E6E6"/>
<path d="M135.373 140.536H128.163C126.553 140.536 125.009 141.176 123.87 142.315C122.732 143.455 122.092 145.001 122.092 146.613C122.092 148.225 122.732 149.77 123.87 150.91C125.009 152.05 126.553 152.69 128.163 152.69H135.373C136.983 152.69 138.527 152.05 139.665 150.91C140.804 149.77 141.444 148.225 141.444 146.613C141.444 145.001 140.804 143.455 139.665 142.315C138.527 141.176 136.983 140.536 135.373 140.536Z" fill="#E6E6E6"/>
<path d="M158.519 140.536H151.309C149.699 140.536 148.155 141.176 147.016 142.315C145.878 143.455 145.238 145.001 145.238 146.613C145.238 148.225 145.878 149.77 147.016 150.91C148.155 152.05 149.699 152.69 151.309 152.69H158.519C160.129 152.69 161.673 152.05 162.811 150.91C163.95 149.77 164.59 148.225 164.59 146.613C164.59 145.001 163.95 143.455 162.811 142.315C161.673 141.176 160.129 140.536 158.519 140.536Z" fill="#E6E6E6"/>
<path d="M181.664 140.536H174.455C172.845 140.536 171.301 141.176 170.162 142.315C169.023 143.455 168.384 145.001 168.384 146.613C168.384 148.225 169.023 149.77 170.162 150.91C171.301 152.05 172.845 152.69 174.455 152.69H181.664C183.274 152.69 184.819 152.05 185.957 150.91C187.096 149.77 187.735 148.225 187.735 146.613C187.735 145.001 187.096 143.455 185.957 142.315C184.819 141.176 183.274 140.536 181.664 140.536Z" fill="#E6E6E6"/>
<path d="M204.81 140.536H197.601C195.991 140.536 194.447 141.176 193.308 142.315C192.169 143.455 191.53 145.001 191.53 146.613C191.53 148.225 192.169 149.77 193.308 150.91C194.447 152.05 195.991 152.69 197.601 152.69H204.81C206.42 152.69 207.965 152.05 209.103 150.91C210.242 149.77 210.881 148.225 210.881 146.613C210.881 145.001 210.242 143.455 209.103 142.315C207.965 141.176 206.42 140.536 204.81 140.536Z" fill="#E6E6E6"/>
<path d="M227.956 140.536H220.747C219.137 140.536 217.593 141.176 216.454 142.315C215.315 143.455 214.676 145.001 214.676 146.613C214.676 148.225 215.315 149.77 216.454 150.91C217.593 152.05 219.137 152.69 220.747 152.69H227.956C229.566 152.69 231.111 152.05 232.249 150.91C233.388 149.77 234.027 148.225 234.027 146.613C234.027 145.001 233.388 143.455 232.249 142.315C231.111 141.176 229.566 140.536 227.956 140.536Z" fill="#E6E6E6"/>
<path d="M53.6027 153.639H46.3933C44.7832 153.639 43.239 154.28 42.1004 155.419C40.9619 156.559 40.3223 158.105 40.3223 159.717C40.3223 161.328 40.9619 162.874 42.1004 164.014C43.239 165.154 44.7832 165.794 46.3933 165.794H53.6027C55.2129 165.794 56.7571 165.154 57.8956 164.014C59.0342 162.874 59.6738 161.328 59.6738 159.717C59.6738 158.105 59.0342 156.559 57.8956 155.419C56.7571 154.28 55.2129 153.639 53.6027 153.639Z" fill="#E6E6E6"/>
<path d="M76.7487 153.639H69.5393C67.9292 153.639 66.385 154.28 65.2464 155.419C64.1079 156.559 63.4683 158.105 63.4683 159.717C63.4683 161.328 64.1079 162.874 65.2464 164.014C66.385 165.154 67.9292 165.794 69.5393 165.794H76.7487C78.3589 165.794 79.9031 165.154 81.0416 164.014C82.1802 162.874 82.8198 161.328 82.8198 159.717C82.8198 158.105 82.1802 156.559 81.0416 155.419C79.9031 154.28 78.3589 153.639 76.7487 153.639Z" fill="#E6E6E6"/>
<path d="M99.8945 153.639H92.6851C91.0749 153.639 89.5307 154.28 88.3922 155.419C87.2536 156.559 86.614 158.105 86.614 159.717C86.614 161.328 87.2536 162.874 88.3922 164.014C89.5307 165.154 91.0749 165.794 92.6851 165.794H99.8945C101.505 165.794 103.049 165.154 104.187 164.014C105.326 162.874 105.966 161.328 105.966 159.717C105.966 158.105 105.326 156.559 104.187 155.419C103.049 154.28 101.505 153.639 99.8945 153.639Z" fill="#E6E6E6"/>
<path d="M123.04 153.639H115.831C114.221 153.639 112.677 154.28 111.538 155.419C110.4 156.559 109.76 158.105 109.76 159.717C109.76 161.328 110.4 162.874 111.538 164.014C112.677 165.154 114.221 165.794 115.831 165.794H123.04C124.651 165.794 126.195 165.154 127.333 164.014C128.472 162.874 129.112 161.328 129.112 159.717C129.112 158.105 128.472 156.559 127.333 155.419C126.195 154.28 124.651 153.639 123.04 153.639Z" fill="#E6E6E6"/>
<path d="M146.186 153.639H138.977C137.367 153.639 135.823 154.28 134.684 155.419C133.546 156.559 132.906 158.105 132.906 159.717C132.906 161.328 133.546 162.874 134.684 164.014C135.823 165.154 137.367 165.794 138.977 165.794H146.186C147.797 165.794 149.341 165.154 150.479 164.014C151.618 162.874 152.258 161.328 152.258 159.717C152.258 158.105 151.618 156.559 150.479 155.419C149.341 154.28 147.797 153.639 146.186 153.639Z" fill="#E6E6E6"/>
<path d="M169.332 153.639H162.123C160.513 153.639 158.969 154.28 157.83 155.419C156.692 156.559 156.052 158.105 156.052 159.717C156.052 161.328 156.692 162.874 157.83 164.014C158.969 165.154 160.513 165.794 162.123 165.794H169.332C170.943 165.794 172.487 165.154 173.625 164.014C174.764 162.874 175.404 161.328 175.404 159.717C175.404 158.105 174.764 156.559 173.625 155.419C172.487 154.28 170.943 153.639 169.332 153.639Z" fill="#E6E6E6"/>
<path d="M192.478 153.639H185.269C183.659 153.639 182.115 154.28 180.976 155.419C179.838 156.559 179.198 158.105 179.198 159.717C179.198 161.328 179.838 162.874 180.976 164.014C182.115 165.154 183.659 165.794 185.269 165.794H192.478C194.089 165.794 195.633 165.154 196.771 164.014C197.91 162.874 198.55 161.328 198.55 159.717C198.55 158.105 197.91 156.559 196.771 155.419C195.633 154.28 194.089 153.639 192.478 153.639Z" fill="#E6E6E6"/>
<path d="M215.624 153.639H208.415C206.805 153.639 205.261 154.28 204.122 155.419C202.984 156.559 202.344 158.105 202.344 159.717C202.344 161.328 202.984 162.874 204.122 164.014C205.261 165.154 206.805 165.794 208.415 165.794H215.624C217.235 165.794 218.779 165.154 219.917 164.014C221.056 162.874 221.696 161.328 221.696 159.717C221.696 158.105 221.056 156.559 219.917 155.419C218.779 154.28 217.235 153.639 215.624 153.639Z" fill="#E6E6E6"/>
<path d="M238.77 153.639H231.561C229.951 153.639 228.407 154.28 227.268 155.419C226.13 156.559 225.49 158.105 225.49 159.717C225.49 161.328 226.13 162.874 227.268 164.014C228.407 165.154 229.951 165.794 231.561 165.794H238.77C240.381 165.794 241.925 165.154 243.063 164.014C244.202 162.874 244.842 161.328 244.842 159.717C244.842 158.105 244.202 156.559 243.063 155.419C241.925 154.28 240.381 153.639 238.77 153.639Z" fill="#E6E6E6"/>
<path d="M212.07 126.482H62.2798C59.9039 126.479 57.626 125.533 55.9459 123.851C54.2658 122.17 53.3208 119.89 53.3181 117.511L53.3279 117.425C58.6272 94.4735 58.6251 65.7002 53.3216 26.8742L53.3181 26.8226C53.3208 24.4442 54.2659 22.164 55.9459 20.4823C57.626 18.8005 59.9039 17.8545 62.2798 17.8518H212.07C214.446 17.8545 216.724 18.8005 218.404 20.4823C220.084 22.1641 221.029 24.4442 221.032 26.8226L221.023 26.902C214.614 56.7376 214.614 87.5962 221.023 117.432L221.032 117.511C221.029 119.89 220.084 122.17 218.404 123.852C216.724 125.533 214.446 126.479 212.07 126.482Z" fill="white"/>
<path d="M212.07 126.482H62.2798C59.9039 126.479 57.626 125.533 55.9459 123.851C54.2658 122.17 53.3208 119.89 53.3181 117.511L53.3279 117.425C58.6272 94.4735 58.6251 65.7002 53.3216 26.8742L53.3181 26.8226C53.3208 24.4442 54.2659 22.164 55.9459 20.4823C57.626 18.8005 59.9039 17.8545 62.2798 17.8518H212.07C214.446 17.8545 216.724 18.8005 218.404 20.4823C220.084 22.1641 221.029 24.4442 221.032 26.8226L221.023 26.902C214.614 56.7376 214.614 87.5962 221.023 117.432L221.032 117.511C221.029 119.89 220.084 122.17 218.404 123.852C216.724 125.533 214.446 126.479 212.07 126.482ZM54.0772 117.554C54.0909 119.723 54.9609 121.799 56.4974 123.33C58.034 124.86 60.1125 125.72 62.2798 125.722H212.07C214.238 125.72 216.317 124.859 217.853 123.329C219.39 121.798 220.26 119.721 220.273 117.551C213.852 87.6362 213.852 56.6976 220.273 26.7829C220.26 24.6129 219.39 22.536 217.853 21.0052C216.317 19.4744 214.238 18.6139 212.07 18.6115H62.2798C60.1095 18.6139 58.0284 19.4763 56.4913 21.0101C54.9543 22.544 54.0863 24.6245 54.077 26.797C59.3864 65.6792 59.3868 94.5219 54.0772 117.554Z" fill="#E6E6E6"/>
<path d="M196.368 44.6295H75.3257C74.6716 44.6295 74.0443 44.3694 73.5818 43.9064C73.1192 43.4434 72.8594 42.8154 72.8594 42.1606C72.8594 41.5059 73.1192 40.8779 73.5818 40.4149C74.0443 39.9519 74.6716 39.6918 75.3257 39.6918H196.368C197.022 39.6918 197.649 39.9519 198.112 40.4149C198.574 40.8779 198.834 41.5059 198.834 42.1606C198.834 42.8154 198.574 43.4434 198.112 43.9064C197.649 44.3694 197.022 44.6295 196.368 44.6295Z" fill="#E6E6E6"/>
<path d="M196.368 56.594H75.3257C74.6716 56.594 74.0443 56.3339 73.5818 55.8709C73.1192 55.4079 72.8594 54.7799 72.8594 54.1251C72.8594 53.4703 73.1192 52.8424 73.5818 52.3794C74.0443 51.9164 74.6716 51.6562 75.3257 51.6562H196.368C197.022 51.6562 197.649 51.9164 198.112 52.3794C198.574 52.8424 198.834 53.4703 198.834 54.1251C198.834 54.7799 198.574 55.4079 198.112 55.8709C197.649 56.3339 197.022 56.594 196.368 56.594Z" fill="#E6E6E6"/>
<path d="M196.368 68.5586H75.3257C74.6716 68.5586 74.0443 68.2985 73.5818 67.8355C73.1192 67.3725 72.8594 66.7445 72.8594 66.0897C72.8594 65.4349 73.1192 64.807 73.5818 64.344C74.0443 63.881 74.6716 63.6208 75.3257 63.6208H196.368C197.022 63.6208 197.649 63.881 198.112 64.344C198.574 64.807 198.834 65.4349 198.834 66.0897C198.834 66.7445 198.574 67.3725 198.112 67.8355C197.649 68.2985 197.022 68.5586 196.368 68.5586Z" fill="#E6E6E6"/>
<path d="M196.368 80.5231H75.3257C74.6716 80.5231 74.0443 80.2629 73.5818 79.7999C73.1192 79.3369 72.8594 78.709 72.8594 78.0542C72.8594 77.3994 73.1192 76.7714 73.5818 76.3084C74.0443 75.8454 74.6716 75.5853 75.3257 75.5853H196.368C197.022 75.5853 197.649 75.8454 198.112 76.3084C198.574 76.7714 198.834 77.3994 198.834 78.0542C198.834 78.709 198.574 79.3369 198.112 79.7999C197.649 80.2629 197.022 80.5231 196.368 80.5231Z" fill="#E6E6E6"/>
<path d="M196.368 92.4875H75.3257C74.6716 92.4875 74.0443 92.2274 73.5818 91.7644C73.1192 91.3014 72.8594 90.6735 72.8594 90.0187C72.8594 89.3639 73.1192 88.7359 73.5818 88.2729C74.0443 87.8099 74.6716 87.5498 75.3257 87.5498H196.368C197.022 87.5498 197.649 87.8099 198.112 88.2729C198.574 88.7359 198.834 89.3639 198.834 90.0187C198.834 90.6735 198.574 91.3014 198.112 91.7644C197.649 92.2274 197.022 92.4875 196.368 92.4875Z" fill="#E6E6E6"/>
<path d="M129.586 104.452H75.3257C74.6716 104.452 74.0443 104.192 73.5818 103.729C73.1192 103.266 72.8594 102.638 72.8594 101.983C72.8594 101.328 73.1192 100.7 73.5818 100.237C74.0443 99.7744 74.6716 99.5143 75.3257 99.5143H129.586C130.24 99.5143 130.867 99.7744 131.33 100.237C131.793 100.7 132.052 101.328 132.052 101.983C132.052 102.638 131.793 103.266 131.33 103.729C130.867 104.192 130.24 104.452 129.586 104.452Z" fill="#AECACD"/>
<path d="M136.485 123.253H126.497C126.345 123.252 126.196 123.216 126.06 123.149C125.924 123.082 125.805 122.986 125.712 122.866C125.602 122.726 125.524 122.562 125.485 122.388C125.445 122.214 125.445 122.033 125.484 121.859L130.184 100.571C130.221 100.332 130.342 100.114 130.524 99.9555C130.707 99.7969 130.939 99.7079 131.181 99.7042C131.422 99.7005 131.657 99.7824 131.844 99.9354C132.031 100.088 132.158 100.303 132.203 100.54L137.491 121.828C137.535 122.004 137.539 122.187 137.502 122.365C137.466 122.543 137.389 122.71 137.279 122.855C137.186 122.977 137.066 123.077 136.928 123.146C136.791 123.215 136.639 123.252 136.485 123.253Z" fill="#E6E6E6"/>
<path d="M262.011 131.23H12.3383C10.9797 131.23 9.67681 130.69 8.71616 129.728C7.75551 128.766 7.21582 127.462 7.21582 126.102C7.21582 124.742 7.75551 123.438 8.71616 122.476C9.67681 121.515 10.9797 120.974 12.3383 120.974H262.011C263.37 120.974 264.673 121.515 265.633 122.476C266.594 123.438 267.134 124.742 267.134 126.102C267.134 127.462 266.594 128.766 265.633 129.728C264.673 130.69 263.37 131.23 262.011 131.23Z" fill="#F2F2F2"/>
<path d="M230.395 118.389L226.751 118.389L225.018 104.322L230.395 104.322L230.395 118.389Z" fill="#FFB6B6"/>
<path d="M231.324 121.924L219.576 121.924V121.775C219.576 120.561 220.058 119.397 220.915 118.538C221.773 117.68 222.936 117.198 224.149 117.198L226.295 115.568L230.298 117.198L231.324 117.198L231.324 121.924Z" fill="#1E2118"/>
<path d="M263.314 113.647L260.053 115.274L252.233 103.458L257.046 101.057L263.314 113.647Z" fill="#FFB6B6"/>
<path d="M265.721 116.396L255.207 121.642L255.141 121.509C254.6 120.422 254.512 119.165 254.897 118.014C255.282 116.863 256.108 115.912 257.193 115.371L258.388 112.954L262.697 112.625L263.615 112.167L265.721 116.396Z" fill="#1E2118"/>
<path d="M228.78 54.5021L248.87 55.2059L250.372 57.9984C250.372 57.9984 251.945 69.4233 251.14 70.2299C250.334 71.0364 249.931 71.0364 250.334 72.4479C250.737 73.8593 251.778 87.3454 251.778 87.3454C251.778 87.3454 260.077 104.577 260.48 105.585C260.883 106.593 261.286 106.19 260.883 106.593C260.526 106.978 260.19 107.382 259.876 107.803H253.31C253.31 107.803 249.774 98.876 246.538 95.4231C243.681 92.3744 241.871 88.4913 241.373 84.3405L238.651 71.4397L232.809 91.2002C232.809 91.2002 231.802 110.759 232.003 111.767L232.205 112.775L224.466 112.862C224.466 112.862 223.66 111.162 224.063 110.557C224.466 109.953 224.442 110.118 223.95 109.128C223.459 108.138 223.66 106.46 223.66 106.46C223.66 106.46 226.565 66.802 226.565 66.1971C226.58 65.8858 226.522 65.5753 226.397 65.29V64.4689L227.169 61.5594L228.78 54.5021Z" fill="#1E2118"/>
<path d="M237.442 18.0151C236.135 18.7933 235.352 20.2231 234.903 21.6781C234.072 24.3717 233.572 27.1567 233.413 29.9715L232.939 38.3985C232.703 43.837 231.191 49.1436 228.527 53.8892C228.33 54.2505 228.217 54.6521 228.198 55.0636C228.179 55.4751 228.253 55.8855 228.417 56.2636C228.58 56.6418 228.827 56.9777 229.139 57.2457C229.452 57.5138 229.821 57.7071 230.219 57.8107C237.501 59.7232 251.291 57.322 251.291 57.322C251.291 57.322 251.878 57.126 251.291 56.538C250.704 55.9501 249.386 53.0101 249.386 53.0101L250.952 42.7104L252.91 21.935C250.561 18.9951 245.835 17.2621 245.835 17.2621L244.614 15.0621L238.51 15.551L237.442 18.0151Z" fill="#AECACD"/>
<path d="M241.318 13.7837C244.556 13.7837 247.182 11.1554 247.182 7.91333C247.182 4.67122 244.556 2.04297 241.318 2.04297C238.079 2.04297 235.453 4.67122 235.453 7.91333C235.453 11.1554 238.079 13.7837 241.318 13.7837Z" fill="#FFB8B8"/>
<path d="M248.543 7.56476C248.281 8.75416 247.809 9.88706 247.148 10.9099C246.973 11.2586 246.711 11.5564 246.388 11.7746C246.224 11.8798 246.028 11.9242 245.835 11.9C245.642 11.8758 245.464 11.7847 245.331 11.6424L245.188 11.526C245.468 11.3534 245.718 11.1364 245.928 10.8834C246.032 10.7565 246.104 10.6065 246.139 10.446C246.173 10.2855 246.169 10.1191 246.126 9.96054C246.075 9.80422 245.966 9.67364 245.821 9.59622C245.677 9.51881 245.507 9.50059 245.349 9.5454C245.006 9.68026 244.797 10.1774 244.438 10.1007C244.147 10.0372 244.087 9.65382 244.087 9.35236C244.097 7.77631 243.336 5.53654 242.747 5.6053C242.152 5.63787 241.556 5.55803 240.991 5.36995C240.424 5.18155 239.827 5.1052 239.231 5.14517C239.189 5.15046 239.147 5.1584 239.102 5.16633C239.006 4.86689 238.875 4.5801 238.711 4.3122C238.729 4.63559 238.713 4.96003 238.663 5.28004C238.189 5.47553 237.7 5.63034 237.2 5.7428C236.656 5.81949 235.459 7.44841 235.403 7.28182C235.308 6.98238 235.177 6.69559 235.012 6.42769C235.031 6.75108 235.015 7.07552 234.965 7.39553C234.962 7.40874 234.962 7.41933 234.96 7.43255C234.695 7.08083 234.534 6.65246 234.624 6.98036C233.739 4.97594 234.083 3.54006 235.475 1.8503C235.746 1.48697 236.105 1.19854 236.518 1.01203C236.725 0.921061 236.952 0.884956 237.177 0.907189C237.402 0.929423 237.617 1.00925 237.802 1.13897C238.37 0.617852 239.067 0.258217 239.82 0.0973416C240.573 -0.0635341 241.356 -0.0198002 242.087 0.224012C243.537 0.729093 244.655 1.02526 244.877 2.54842C245.482 2.48218 246.093 2.58854 246.641 2.85523C247.188 3.12193 247.649 3.53808 247.97 4.05569C248.595 5.11161 248.8 6.36453 248.543 7.56476Z" fill="#1E2118"/>
<path d="M254.802 45.7114L254.811 33.9257L246.527 34.5448L248.97 41.978L241.467 55.432C240.912 55.5565 240.406 55.8399 240.01 56.2474C239.613 56.655 239.344 57.1692 239.235 57.7274C239.125 58.2855 239.18 58.8635 239.393 59.3908C239.606 59.9181 239.968 60.3719 240.434 60.697C240.9 61.0221 241.451 61.2044 242.019 61.2216C242.587 61.2388 243.148 61.0903 243.633 60.794C244.118 60.4978 244.506 60.0666 244.751 59.5532C244.995 59.0398 245.085 58.4662 245.01 57.9025L254.802 45.7114Z" fill="#FFB6B6"/>
<path d="M252.321 21.3818C255.563 22.7794 256.295 43.8882 255.567 43.7684C253.496 43.4279 249.339 41.454 248.096 42.0388C247.386 42.3732 246.604 36.3179 246.604 36.3179C246.604 36.3179 245.852 32.9276 244.969 28.5464C244.697 27.3123 244.741 26.0294 245.097 24.817C245.453 23.6046 246.11 22.5021 247.007 21.6121C247.007 21.6121 249.079 19.9842 252.321 21.3818Z" fill="#AECACD"/>
<path d="M52.1117 151.623C51.8971 151.427 51.728 151.186 51.6164 150.917C51.5047 150.649 51.4533 150.359 51.4657 150.068C51.4781 149.778 51.5539 149.493 51.688 149.235C51.822 148.977 52.011 148.752 52.2415 148.575L50.0159 141.864L53.561 142.817L55.131 149.044C55.4025 149.451 55.5153 149.944 55.448 150.429C55.3807 150.914 55.138 151.358 54.7658 151.676C54.3937 151.994 53.9179 152.164 53.4288 152.154C52.9396 152.144 52.471 151.955 52.1117 151.623Z" fill="#FFB6B6"/>
<path d="M58.5368 115.161C59.125 115.498 62.6053 114.662 63.285 114.9C62.9098 117.192 64.9476 116.332 62.7347 119.341C60.5218 122.35 56.0647 131.374 55.0521 134.746C54.0396 138.118 55.0418 142.871 54.8901 144.469C54.8168 145.395 54.8214 146.326 54.9038 147.251C53.7082 147.236 52.5297 147.484 51.3154 147.326C50.0204 143.658 49.1497 138.437 48.5585 135.551C47.9673 132.666 47.9456 133.886 48.2168 132.443C48.488 131 48.5536 132.049 48.2688 130.668C47.984 129.288 49.136 127.554 50.2004 126.565C50.6593 125.243 51.2525 124.011 51.7068 122.704C55.0364 119.796 55.2553 118.117 58.5368 115.161Z" fill="#DEED4F"/>
<path d="M89.7018 147.369C89.4141 147.41 89.1209 147.387 88.8428 147.303C88.5647 147.219 88.3085 147.074 88.0922 146.88C87.8759 146.686 87.7048 146.446 87.591 146.178C87.4771 145.911 87.4233 145.621 87.4332 145.331L80.8428 142.785L83.8313 140.652L89.6315 143.396C90.1183 143.445 90.5702 143.671 90.9016 144.031C91.2329 144.392 91.4207 144.861 91.4294 145.351C91.438 145.841 91.267 146.317 90.9485 146.688C90.6301 147.06 90.1865 147.302 89.7018 147.369Z" fill="#FFB6B6"/>
<path d="M65.6641 119.228C66.2983 118.988 67.8652 115.767 68.4807 115.393C70.0096 117.14 70.6416 115.018 71.5562 118.641C72.4707 122.264 76.5968 131.444 78.5542 134.369C80.5116 137.295 84.8139 139.541 85.9502 140.674C86.6178 141.32 87.3385 141.908 88.1044 142.432C87.3328 143.346 86.7754 144.415 85.8812 145.253C82.2292 143.922 77.6491 141.277 75.0479 139.899C72.4467 138.522 73.3741 139.315 72.4336 138.188C71.4932 137.062 72.3436 137.677 71.0979 137.02C69.8523 136.363 69.247 134.37 69.1609 132.919C68.4335 131.725 67.8602 130.483 67.1405 129.301C67.0143 124.88 65.8581 123.643 65.6641 119.228Z" fill="#DEED4F"/>
<path d="M70.6229 139.164L73.9119 153.856L52.8362 152.544L58.5673 138.115L70.6229 139.164Z" fill="#FFB6B6"/>
<path d="M67.1134 206.973L69.4808 206.973L70.6069 197.833H67.113L67.1134 206.973Z" fill="#FFB6B6"/>
<path d="M66.3117 205.804L70.0542 205.581V207.186L73.6122 209.645C73.7879 209.767 73.9203 209.941 73.9899 210.143C74.0596 210.346 74.0629 210.565 73.9993 210.769C73.9357 210.973 73.8087 211.151 73.6366 211.278C73.4646 211.405 73.2566 211.473 73.0431 211.473H68.5876L67.8196 209.885L67.5197 211.473H65.8398L66.3117 205.804Z" fill="#1E2118"/>
<path d="M44.738 205.794L47.0515 206.297L50.0882 197.603L46.6736 196.861L44.738 205.794Z" fill="#FFB6B6"/>
<path d="M44.202 204.482L47.9067 205.057L47.5668 206.626L50.523 209.785C50.669 209.941 50.7614 210.14 50.7867 210.352C50.8119 210.564 50.7687 210.779 50.6634 210.965C50.5581 211.151 50.3961 211.298 50.2011 211.386C50.0062 211.473 49.7885 211.495 49.5798 211.45L45.2255 210.505L44.8113 208.79L44.182 210.278L42.5403 209.921L44.202 204.482Z" fill="#1E2118"/>
<path d="M74.45 166.142C72.7885 175.282 72.3731 179.229 72.3731 179.229C72.3731 179.229 73.6192 180.683 72.7885 181.515C71.9578 182.346 72.7885 184.007 72.7885 184.007L70.9205 204.158L69.4168 203.914L65.7945 203.331L64.4881 203.119L65.3188 184.216C65.3188 184.216 64.4881 182.553 64.9034 182.137C65.3188 181.721 64.4881 179.229 64.4881 179.229L63.4508 159.494L57.016 181.099C57.016 181.099 57.6402 181.93 57.016 182.553C56.3941 183.175 55.1503 186.293 55.1503 186.293L51.3238 199.695L50.999 200.834L49.0033 200.46L46.8313 200.051L46.4322 199.977L45.7221 199.842L45.265 199.756L45.1095 199.728L44.3577 199.586L44.5851 198.576L44.7034 198.044L47.9405 183.652L48.0148 183.319L48.0937 182.969C48.0937 182.969 47.6783 181.93 48.3002 181.305C48.4821 181.115 48.615 180.883 48.6874 180.63C48.7598 180.376 48.7695 180.109 48.7156 179.851C48.6952 179.83 48.6766 179.806 48.6599 179.782C48.5864 179.681 48.5358 179.565 48.5114 179.443C48.4826 179.247 48.5056 179.048 48.5781 178.865C48.6506 178.681 48.77 178.52 48.9244 178.397C49.0427 178.271 49.142 178.129 49.2191 177.975C49.8503 176.778 50.1682 174.244 50.1682 174.244C50.1682 174.244 50.7298 154.172 52.5676 151.106C52.6651 150.946 54.6161 147.869 54.7182 147.806C56.7928 146.561 72.9553 148.281 72.9553 148.281C72.9553 148.281 73.9342 150.913 73.9783 151.187C74.2173 152.727 75.8585 158.388 74.45 166.142Z" fill="#1E2118"/>
<path d="M69.5388 117.795C69.5388 117.795 69.8885 115.977 66.528 112.613C64.7489 112.02 61.6664 112.366 60.5977 112.613C55.6557 119.143 56.5406 117.991 55.2542 121.64C54.9145 122.46 54.7932 123.355 54.9021 124.237C55.4951 127.205 56.4579 142.441 56.2602 143.233C56.0625 144.024 54.6788 145.014 56.0625 145.014C57.4462 145.014 75.2908 144.701 74.8955 144.107C74.5001 143.514 69.5388 117.795 69.5388 117.795Z" fill="#DEED4F"/>
<path d="M63.965 111.472C67.0954 111.472 69.633 108.932 69.633 105.799C69.633 102.665 67.0954 100.125 63.965 100.125C60.8347 100.125 58.2971 102.665 58.2971 105.799C58.2971 108.932 60.8347 111.472 63.965 111.472Z" fill="#FFB6B6"/>
<path d="M59.1631 107.944C59.1321 108.632 58.7013 109.225 58.3687 109.827C57.7887 110.902 57.4792 112.103 57.467 113.324C57.4549 114.546 57.7405 115.752 58.299 116.839C58.7617 117.717 59.4022 118.501 59.7693 119.424C59.946 119.813 60.0355 120.237 60.0315 120.665C60.0276 121.093 59.9302 121.515 59.7463 121.901C58.7529 120.944 58.2681 121.449 57.1399 120.614C57.5836 121.859 57.2054 121.899 57.6507 123.142C55.736 123.69 53.8206 124.238 51.9045 124.789C53.0809 123.833 53.9117 122.517 54.2695 121.043C54.6274 119.57 54.4926 118.019 53.8857 116.629C53.1853 115.126 51.9333 113.886 51.4775 112.289C51.2294 111.424 51.2339 110.507 51.4904 109.645C51.7469 108.782 52.2447 108.012 52.9249 107.424C53.6052 106.836 54.4394 106.456 55.3289 106.327C56.2183 106.199 57.1259 106.329 57.9442 106.701C58.5883 106.516 59.1943 107.267 59.1631 107.944Z" fill="#1E2118"/>
<path d="M66.2821 99.4393C65.5199 97.7721 63.5088 98.1114 61.6904 98.3313C60.7824 98.4715 59.9222 98.8312 59.1844 99.3793C58.4466 99.9274 57.8533 100.647 57.4561 101.477C56.6789 103.157 56.5303 105.062 57.0374 106.843C57.3094 108.056 57.9586 109.151 58.8918 109.972C59.8521 110.745 64.3666 112.573 64.7424 110.999C64.2726 113.053 63.0502 114.222 64.4493 115.797C65.1739 113.618 68.2382 111.548 68.9628 109.369C69.0719 109.041 68.6239 105.186 68.733 104.858C68.9629 104.167 69.1932 103.474 69.3593 102.765C69.568 101.874 69.6483 100.852 69.0953 100.123C68.5423 99.3936 67.1491 99.3653 66.8696 100.237" fill="#1E2118"/>
<path d="M65.3697 106.378L65.1274 104.834C65.2921 102.914 65.0233 99.8593 66.2822 99.4393L67.0521 100.21C66.5651 100.373 65.6389 103.244 65.3697 106.378Z" fill="#FF1B03"/>
<path d="M120.583 211.548C120.583 211.607 120.571 211.666 120.549 211.721C120.526 211.776 120.493 211.826 120.451 211.868C120.409 211.91 120.359 211.943 120.304 211.966C120.249 211.989 120.19 212 120.131 212H13.7772C13.6575 212 13.5426 211.952 13.4579 211.868C13.3733 211.783 13.3257 211.668 13.3257 211.548C13.3257 211.428 13.3733 211.313 13.4579 211.228C13.5426 211.144 13.6575 211.096 13.7772 211.096H120.131C120.19 211.096 120.249 211.107 120.304 211.13C120.359 211.153 120.409 211.186 120.451 211.228C120.493 211.27 120.526 211.32 120.549 211.375C120.571 211.43 120.583 211.489 120.583 211.548Z" fill="#CCCCCC"/>
<path d="M176.257 183.458H98.0923C96.4822 183.458 94.938 184.098 93.7994 185.237C92.6609 186.377 92.0212 187.923 92.0212 189.535C92.0212 191.147 92.6609 192.692 93.7994 193.832C94.938 194.972 96.4822 195.612 98.0923 195.612H176.257C177.868 195.612 179.412 194.972 180.55 193.832C181.689 192.692 182.328 191.147 182.328 189.535C182.328 187.923 181.689 186.377 180.55 185.237C179.412 184.098 177.868 183.458 176.257 183.458Z" fill="#E6E6E6"/>
</g>
<defs>
<clipPath id="clip0_66_2">
<rect width="274" height="212" fill="white"/>
</clipPath>
</defs>
</svg>
