<svg width="338" height="221" viewBox="0 0 338 221" fill="none" xmlns="http://www.w3.org/2000/svg">
<g clip-path="url(#clip0_66_307)">
<rect x="30" width="147" height="106" rx="10" fill="white"/>
<path d="M196.643 218.308H0V218.975H196.643V218.308Z" fill="#E6E6E6"/>
<path d="M197.9 184.207H0V184.874H197.9V184.207Z" fill="#E6E6E6"/>
<path d="M154.036 110.151C154.279 113.196 156.049 115.539 157.99 115.385C159.932 115.23 161.308 112.637 161.064 109.59C160.983 108.372 160.613 107.191 159.981 106.145L158.789 93.2555L152.743 93.9427L154.559 106.577C154.101 107.709 153.922 108.935 154.036 110.151Z" fill="#6B5252"/>
<path d="M146.812 50.0145C146.812 50.0145 152.464 47.0271 155.33 51.4914C158.196 55.9556 160.175 104.237 160.175 104.237L152.231 105.084L150.725 71.0612L146.812 50.0145Z" fill="#E6E6E6"/>
<path d="M135.081 181.688L139.683 181.687L141.872 163.964L135.08 163.966L135.081 181.688Z" fill="#6B5252"/>
<path d="M150.849 181.584C150.992 181.825 151.067 182.602 151.067 182.882C151.067 183.744 150.367 184.442 149.505 184.442H135.253C134.665 184.442 134.187 183.966 134.187 183.378V182.786C134.187 182.786 133.482 181.005 134.934 178.81C134.934 178.81 136.738 180.529 139.433 177.837L140.229 176.399L145.983 180.601L149.172 180.994C149.87 181.079 150.489 180.98 150.849 181.584Z" fill="#1E2118"/>
<path d="M161.712 180.927L166.17 179.79L163.899 162.077L157.318 163.756L161.712 180.927Z" fill="#6B5252"/>
<path d="M176.963 176.931C177.161 177.128 177.427 177.864 177.497 178.135C177.71 178.969 177.206 179.819 176.371 180.031L162.562 183.553C161.991 183.699 161.411 183.355 161.265 182.786L161.118 182.212C161.118 182.212 159.993 180.661 160.857 178.176C160.857 178.176 163.03 179.395 164.976 176.121L165.389 174.532L172.006 177.18L175.193 176.772C175.891 176.683 176.465 176.435 176.963 176.931Z" fill="#1E2118"/>
<path d="M131.273 46.2049L131.055 44.6238L133.648 38.3002L140.774 37.5096L142.313 46.5629L131.273 46.2049Z" fill="#503B3B"/>
<path d="M122.96 90.8659L119.793 99.5609L122.169 104.304L134.044 173.074H141.94L140.378 112.208L158.589 173.074H166.403L160.119 131.97L155.422 94.0278L152.573 92.2705L138.795 84.5422L122.96 90.8659Z" fill="#1E2118"/>
<path d="M143.15 96.7945L138.399 97.585L132.065 82.5662H146.316L143.15 96.7945Z" fill="#E6E6E6"/>
<path d="M152.65 92.8422L143.15 96.7945L139.982 89.6804L138.399 97.585L121.772 92.2415L124.148 82.5662L121.772 50.9476L130.158 45.3669L131.273 44.6239L141.565 45.4143L142.469 45.9044L148.692 49.3667L150.276 75.452L152.65 92.8422Z" fill="#1E2118"/>
<path d="M142.469 45.9044L138.003 64.7807L130.156 45.3669L131.273 44.6239L141.565 45.4143L142.469 45.9044Z" fill="#E6E6E6"/>
<path d="M134.837 44.6239L133.252 47.3466L134.837 48.2542L134.044 64.8298L137.212 69.1283L140.378 62.7753L138.003 48.2542L138.795 44.6239H134.837Z" fill="#1E2118"/>
<path d="M137.212 43.043C141.366 43.043 144.733 39.6809 144.733 35.5335C144.733 31.3863 141.366 28.0242 137.212 28.0242C133.058 28.0242 129.69 31.3863 129.69 35.5335C129.69 39.6809 133.058 43.043 137.212 43.043Z" fill="#6B5252"/>
<path d="M132.404 36.1923L134.03 36.9004L134.739 32.6517C134.739 32.6517 137.576 31.2354 139.704 31.9436C141.832 32.6517 145.378 31.9436 145.378 31.9436C145.378 31.9436 145.378 24.8623 140.413 24.8623C135.449 24.8623 130.483 25.5704 130.483 27.6947C130.483 29.8192 128.356 31.9436 128.356 31.9436C128.356 31.9436 125.519 36.1923 128.356 39.0248C131.193 41.8573 132.611 41.8573 132.611 41.8573L132.404 36.1923Z" fill="#1E2118"/>
<path d="M117.81 109.929C117.727 112.982 119.239 115.5 121.185 115.552C123.132 115.604 124.776 113.171 124.858 110.116C124.908 108.896 124.664 107.683 124.147 106.576L124.333 93.6326L118.248 93.675L118.711 106.43C118.135 107.508 117.826 108.707 117.81 109.929Z" fill="#6B5252"/>
<path d="M125.339 49.3519C125.339 49.3519 120.193 47.7708 117.817 52.5137C115.442 57.2565 118.609 105.475 118.609 105.475H126.598L124.478 71.4848L125.339 49.3519Z" fill="#E6E6E6"/>
<path d="M68.1396 148.606L76.6981 143.173L80.1776 145.267L68.1396 159.077V148.606Z" fill="#FFB6B6"/>
<path d="M56.4362 127.573C56.4362 127.573 50.7516 128.91 53.4267 136.588C56.1018 144.267 64.7958 160.292 67.4709 159.29C70.146 158.287 70.4805 148.272 70.4805 148.272C70.4805 148.272 70.146 148.606 68.8085 147.271C67.4709 145.935 67.4709 146.546 67.4709 145.071C67.4709 143.598 66.377 142.506 66.377 142.506L65.1303 139.927C65.1303 139.927 65.1303 127.908 60.1145 127.239C55.0986 126.573 56.4362 127.573 56.4362 127.573Z" fill="#DEED4F"/>
<path d="M82.9945 144.909C85.2145 142.692 85.9026 139.786 84.5314 138.418C83.1603 137.048 80.2491 137.734 78.0291 139.952C75.8091 142.168 75.121 145.074 76.4922 146.443C77.8633 147.813 80.7745 147.126 82.9945 144.909Z" fill="#FFB6B6"/>
<path d="M34.2949 171.809L40.1349 181.46L74.1676 179.448L65.1057 167.788L34.2949 171.809Z" fill="#E6E6E6"/>
<path d="M44.4639 216.945C44.2658 216.945 44.093 216.798 44.0655 216.598L33.8959 142.445C33.8657 142.225 34.0199 142.023 34.2403 141.992C34.4605 141.96 34.6637 142.116 34.694 142.335L44.8635 216.488C44.8937 216.708 44.7395 216.911 44.5191 216.942C44.5005 216.944 44.4822 216.945 44.4639 216.945Z" fill="#E6E6E6"/>
<path d="M34.2949 217.04C34.0725 217.04 33.8921 216.859 33.8921 216.637V142.404C33.8921 142.183 34.0725 142.003 34.2949 142.003C34.5173 142.003 34.6976 142.183 34.6976 142.404V216.637C34.6976 216.859 34.5173 217.04 34.2949 217.04Z" fill="#E6E6E6"/>
<path d="M85.3432 216.744C85.1721 216.744 85.0133 216.634 84.9591 216.462L60.8946 140.099C60.8279 139.887 60.9458 139.661 61.158 139.594C61.3701 139.528 61.5963 139.646 61.663 139.857L85.7275 216.221C85.7943 216.433 85.6763 216.659 85.4642 216.726C85.424 216.738 85.3833 216.744 85.3432 216.744Z" fill="#E6E6E6"/>
<path d="M77.9928 216.839C77.813 216.839 77.6491 216.717 77.6028 216.535L60.8885 149.139C60.8337 148.924 60.964 148.704 61.1795 148.65C61.3957 148.595 61.6144 148.725 61.6692 148.94L78.3834 216.336C78.4382 216.552 78.3079 216.771 78.0924 216.826C78.0591 216.834 78.0257 216.839 77.9928 216.839Z" fill="#E6E6E6"/>
<path d="M34.2949 143.587L62.1857 143.159L67.3208 172.411H34.6978L34.2949 143.587Z" fill="#E6E6E6"/>
<path d="M77.156 186.602L70.127 198.956L78.2882 200.751L81.6907 191.964L77.156 186.602Z" fill="#FFB6B6"/>
<path d="M72.6515 196.625C72.6515 196.625 72.3783 194.609 70.7727 195.249C69.167 195.888 64.5327 198.265 64.5327 198.265C64.5327 198.265 76.6198 217.872 78.9138 216.959C81.2077 216.046 78.4617 210.503 78.4617 210.503L79.0677 200.706L72.6515 196.625Z" fill="#1E2118"/>
<path d="M46.0705 162.628C46.0705 162.628 43.5626 174.145 51.2534 178.152C58.9444 182.158 85.1939 172.31 85.1939 172.31L73.1559 190.317L81.5156 193.676C81.5156 193.676 100.576 168.637 99.2382 164.631C97.9007 160.624 88.8722 160.292 88.8722 160.292L68.4744 161.292L63.1242 159.624L46.0705 162.628Z" fill="#1E2118"/>
<path d="M66.7571 192.085L55.707 201.04L62.6549 205.676L69.0269 198.727L66.7571 192.085Z" fill="#FFB6B6"/>
<path d="M58.9085 199.784C58.9085 199.784 59.3884 197.808 57.6597 197.82C55.9311 197.833 50.7485 198.363 50.7485 198.363C50.7485 198.363 54.8603 221.018 57.3299 221C59.7994 220.982 59.2619 214.822 59.2619 214.822L63.3973 205.917L58.9085 199.784Z" fill="#1E2118"/>
<path d="M46.5405 158.462C46.5405 158.462 40.0067 168.279 45.7102 174.805C51.4138 181.329 79.4532 181.693 79.4532 181.693L61.677 194.093L68.2397 200.257C68.2397 200.257 95.119 183.861 95.3333 179.643C95.5476 175.425 87.2597 171.835 87.2597 171.835L67.8953 165.357L63.5203 161.859L46.5405 158.462Z" fill="#1E2118"/>
<path d="M63.3256 135.723C63.3256 135.723 56.9722 133.386 53.9627 133.386C53.6751 133.386 53.3909 133.42 53.1066 133.48C51.1805 133.887 49.4084 135.54 48.559 136.441C48.2279 136.795 48.0373 137.031 48.0373 137.031C48.0373 137.031 48.0574 136.802 48.0975 136.397C48.2947 134.274 49.0237 127.307 50.3313 122.847C50.7993 121.254 51.3377 119.982 51.9563 119.365C53.3975 117.922 54.063 116.193 54.3706 114.904C54.6314 113.799 54.6314 113.022 54.6314 113.022L52.1938 111.973L51.7423 109.029C51.662 109.376 51.2909 110.054 50.0437 111.352C49.9366 111.463 49.8196 111.556 49.6959 111.636C47.8969 112.765 44.2287 110.802 42.2524 109.566C43.0749 106.712 44.5664 104.101 47.2749 103.674C53.6282 102.672 53.6283 99 57.641 103.006C57.972 103.337 58.3063 103.654 58.6408 103.961C59.9248 106.411 60.393 109.696 60.5601 111.98C60.6805 113.579 60.6504 114.691 60.6504 114.691C60.6504 114.691 62.3224 124.706 64.9975 126.71C67.6726 128.712 63.3256 135.723 63.3256 135.723Z" fill="#FFFF9C"/>
<path d="M50.9532 119.698L46.4351 126.315L56.6378 129.046V119.698H50.9532Z" fill="#FFB6B6"/>
<path opacity="0.1" d="M50.9532 119.698L46.4351 126.315L56.6378 129.046V119.698H50.9532Z" fill="black"/>
<path d="M57.2726 126.072L47.5754 122.065C47.5754 122.065 34.5343 127.74 35.5375 138.758C36.5407 149.775 45.9035 168.804 45.9035 168.804L64.6292 160.791L62.6228 139.426L57.2726 126.072Z" fill="#DEED4F"/>
<path d="M53.1149 122.653C57.8398 122.653 61.6702 118.828 61.6702 114.111C61.6702 109.394 57.8398 105.57 53.1149 105.57C48.3899 105.57 44.5596 109.394 44.5596 114.111C44.5596 118.828 48.3899 122.653 53.1149 122.653Z" fill="#FFB6B6"/>
<path d="M64.6629 111.018C62.991 112.688 61.6534 114.357 61.6534 114.357L60.9847 111.686C60.9847 111.686 60.8308 111.8 60.56 111.98C59.5 112.701 56.6543 114.514 54.3705 114.904C53.354 115.078 52.451 114.968 51.8625 114.357C50.6153 113.058 50.2441 112.381 50.1638 112.033L49.7125 114.978L47.2747 116.026C47.2747 116.026 47.2747 119.692 49.9498 122.369C50.0802 122.499 50.2073 122.66 50.3311 122.847C51.6084 124.77 52.5247 129.477 53.1064 133.48C53.6215 137.039 53.8689 140.036 53.8689 140.036C53.8689 140.036 51.3375 136.872 48.5588 136.441C48.405 136.417 48.2512 136.401 48.0974 136.397C48.0472 136.391 47.9937 136.391 47.9436 136.391C44.934 136.391 38.5806 138.728 38.5806 138.728C38.5806 138.728 34.2336 131.717 36.9087 129.714C39.5838 127.71 41.2558 117.695 41.2558 117.695C41.2558 117.695 41.1454 113.409 42.2522 109.566C43.0749 106.712 44.5662 104.101 47.2747 103.674C53.6281 102.672 53.6281 99 57.6408 103.006C57.9719 103.337 58.3062 103.654 58.6406 103.961C62.3791 107.393 66.1978 109.486 64.6629 111.018Z" fill="#FFFF9C"/>
<path d="M27.1397 155.833H23.9624V218.484H27.1397V155.833Z" fill="#A39473"/>
<path d="M104.19 155.833H101.013V218.484H104.19V155.833Z" fill="#A39473"/>
<path d="M85.4426 150.682H64.082V153.193H85.4426V150.682Z" fill="#AECACD"/>
<path d="M50.7515 151.611L60.9403 145.659L62.7894 148.272L50.7515 162.082V151.611Z" fill="#FFB6B6"/>
<path d="M39.048 130.578C39.048 130.578 33.3634 131.914 36.0385 139.593C38.7136 147.271 47.4078 163.295 50.0829 162.294C52.758 161.292 53.0923 151.277 53.0923 151.277C53.0923 151.277 52.758 151.611 51.4204 150.275C50.0829 148.94 50.0829 149.55 50.0829 148.076C50.0829 146.603 48.9888 145.511 48.9888 145.511L47.7421 142.931C47.7421 142.931 47.7421 130.912 42.7263 130.244C37.7105 129.578 39.048 130.578 39.048 130.578Z" fill="#DEED4F"/>
<path d="M65.463 150.878C68.5954 151.066 71.2274 149.651 71.3418 147.717C71.4562 145.783 69.0096 144.064 65.8773 143.876C62.7448 143.688 60.1129 145.103 59.9985 147.037C59.8841 148.97 62.3307 150.689 65.463 150.878Z" fill="#FFB6B6"/>
<path d="M110.544 153.454H14.4307V160.592H110.544V153.454Z" fill="#A39473"/>
<path d="M62.5752 113.608C62.5752 113.608 59.5217 111.468 57.7045 113.777H56.6105C55.5163 110.637 50.1023 112.093 50.1023 112.093L42.7212 113.301L42.8598 113.777L50.1023 113.189C50.1023 113.189 50.2709 116.131 51.2526 117.085C52.2342 118.039 54.3661 117.504 54.3661 117.504C55.655 117.339 56.2732 115.318 56.5018 114.323L57.5584 114.383C57.3673 115.397 57.2399 117.377 58.9672 118.065C61.3239 118.99 62.0544 116.887 62.0544 116.887C62.0544 116.887 62.8563 114.177 62.5752 113.608Z" fill="#1E2118"/>
<path d="M49.2133 113.087C49.2133 115.618 47.6183 117.755 45.339 118.536V116.948C43.1995 116.948 41.4648 115.223 41.4648 113.096C41.4648 110.969 43.1995 109.244 45.339 109.244C47.4787 109.244 49.2133 110.969 49.2133 113.096" fill="#FF1B03"/>
<path d="M45.3396 112.123C44.6271 111.09 43.5259 111.558 43.5259 111.558V115.633C44.7466 115.425 45.1958 116.183 45.3253 116.988C45.5066 116.019 46.4509 115.274 47.7911 115.274V110.594C46.582 110.594 45.7096 111.122 45.3871 111.949C45.3655 112.004 45.3497 112.063 45.3396 112.123Z" fill="#FFFF9C"/>
<path d="M48.2593 110.5L45.2344 109.663C53.0992 102.966 55.9845 103.594 57.7994 103.594C59.2514 103.594 61.5689 105.477 61.5689 106.314C57.213 103.636 51.0825 107.989 48.2593 110.5Z" fill="#FF1B03"/>
<path d="M84.0832 96.3547H69.8885C68.7633 96.3547 67.8511 97.2655 67.8511 98.3888V104.234C67.8511 105.357 68.7633 106.268 69.8885 106.268H84.0832C85.2084 106.268 86.1207 105.357 86.1207 104.234V98.3888C86.1207 97.2655 85.2084 96.3547 84.0832 96.3547Z" fill="#1E2118"/>
<path d="M113.871 102.199H99.6761C98.5509 102.199 97.6387 103.11 97.6387 104.234C97.6387 105.357 98.5509 106.268 99.6761 106.268H113.871C114.996 106.268 115.908 105.357 115.908 104.234C115.908 103.11 114.996 102.199 113.871 102.199Z" fill="#AECACD"/>
<path d="M42.5 23.5L48.5 19.5L54 23.5L60 19.5L64 23.5L67.5 19.5L71.5 23.5L76 19.5" stroke="#E6E6E6"/>
<path d="M43 34.5L48 31.5L54 34.5L57.5 30.5L60.5 33.5L62.5 31.5L65.5 34.5L71 31.5L75 34.5L81 31.5L85.5 34.5L88.5 31.5L91.5 33.5L94.5 31.5L98.5 34.5L101 31.5L104.5 34.5" stroke="#E6E6E6"/>
</g>
<defs>
<clipPath id="clip0_66_307">
<rect width="338" height="221" fill="white"/>
</clipPath>
</defs>
</svg>
